<svg  version="1.0" xmlns="http://www.w3.org/2000/svg"  width="256" height="256" viewBox="0 0 256 256"  preserveAspectRatio="xMidYMid meet"> 
  <g transform="translate(0,256) scale(0.05,-0.05)" fill="red" stroke="none">
    <path d="M0 4795 l0 -325 940 -940 c517 -517 940 -949 940 -960 0 -11 -401 -421 -891 -910 -963 -961 -977 -979 -978 -1180 0 -275 194 -469 469 -469 201 0 219 15 1180 978 489 490 899 891 910 891 11 0 443 -423 960 -940 l940 -940 325 0 325 0 0 345 0 345 -930 930 c-511 511 -930 939 -930 950 0 11 419 439 930 950 l930 930 0 335 0 335 -335 0 -335 0 -930 -930 c-511 -511 -939 -930 -950 -930 -11 0 -439 419 -950 930 l-930 930 -345 0 -345 0 0 -325z"/>
  </g>
</svg> 
